<svg width="301" height="280" viewBox="0 0 301 280" fill="none" xmlns="http://www.w3.org/2000/svg">
<g filter="url(#filter0_n_266_347)">
<path d="M111.595 254.988C130.128 209.736 122.762 155.001 116.762 133.29L137.714 132.064L140.324 172.981L142.319 230.507L124.127 303.557L90.8456 301.723C90.0412 302.912 89.8471 302.632 89.9989 301.677L90.8456 301.723C92.8143 298.815 98.4385 287.113 111.595 254.988Z" fill="url(#paint0_linear_266_347)"/>
</g>
<path d="M89.5244 40.1302L116.894 89.4851L132.473 91.9613L132.198 25.1731L89.5244 40.1302Z" fill="url(#paint1_linear_266_347)"/>
<path d="M167.568 170.243L136.503 123.389L120.766 122.224L126.115 188.695L167.568 170.243Z" fill="url(#paint2_linear_266_347)"/>
<path d="M160.27 34.4289L115.128 92.6733L120.847 108.011L202.593 61.3192L160.27 34.4289Z" fill="url(#paint3_linear_266_347)"/>
<path d="M201.857 76.8838L132.433 93.926L127.818 109.83L218.835 125.709L201.857 76.8838Z" fill="url(#paint4_linear_266_347)"/>
<path d="M195.865 129.007L131.434 105.299L121.872 115.267L192.684 176.222L195.865 129.007Z" fill="url(#paint5_linear_266_347)"/>
<path d="M96.9454 177.211L134.796 113.571L127.264 99.1427L51.6393 156.188L96.9454 177.211Z" fill="url(#paint6_linear_266_347)"/>
<path d="M54.0712 136.272L123.765 120.579L128.66 104.763L37.9668 87.1102L54.0712 136.272Z" fill="url(#paint7_linear_266_347)"/>
<path d="M55.4655 79.4696L116.824 116.062L130.453 107.478L74.7242 30.9962L55.4655 79.4696Z" fill="url(#paint8_linear_266_347)"/>
<rect width="56.3544" height="52.3687" transform="matrix(0.842738 0.538324 -0.508567 0.861022 113.166 68.6786)" fill="url(#paint9_linear_266_347)"/>
<rect x="99.9602" y="74.9705" width="55.9303" height="52.7336" transform="rotate(9.03102 99.9602 74.9705)" fill="url(#paint10_linear_266_347)"/>
<g filter="url(#filter1_n_266_347)">
<path d="M179.333 287.351C200.283 269.902 210.952 241.015 213.668 228.754L224.309 233.623L214.906 254.46L200.862 283.318L172.818 314.55L156.903 304.953C156.197 305.328 156.174 305.139 156.498 304.708L156.903 304.953C158.633 304.034 164.46 299.739 179.333 287.351Z" fill="url(#paint11_linear_266_347)"/>
</g>
<path d="M224.586 175.748L225.176 207.21L232.203 212.499L249.514 179.528L224.586 175.748Z" fill="url(#paint12_linear_266_347)"/>
<path d="M229.042 260.228L225.979 229.033L218.531 224.348L203.802 258.489L229.042 260.228Z" fill="url(#paint13_linear_266_347)"/>
<path d="M260.924 191.42L223.473 208.319L222.284 217.368L274.748 215.722L260.924 191.42Z" fill="url(#paint14_linear_266_347)"/>
<path d="M270.32 223.197L231.671 213.457L225.243 220.085L265.929 251.683L270.32 223.197Z" fill="url(#paint15_linear_266_347)"/>
<path d="M253.753 247.307L228.207 218.798L220.893 221.21L239.852 269.734L253.753 247.307Z" fill="url(#paint16_linear_266_347)"/>
<path d="M192.433 245.212L227.702 223.751L227.761 214.676L175.607 223.021L192.433 245.212Z" fill="url(#paint17_linear_266_347)"/>
<path d="M182.008 213.846L220.438 224.321L226.981 217.809L186.917 185.422L182.008 213.846Z" fill="url(#paint18_linear_266_347)"/>
<path d="M197.533 186.23L218.199 220.283L227.155 219.615L219.682 167.383L197.533 186.23Z" fill="url(#paint19_linear_266_347)"/>
<rect width="31.4215" height="29.1993" transform="matrix(0.492322 0.870413 -0.85269 0.522417 228.775 195.987)" fill="url(#paint20_linear_266_347)"/>
<rect x="220.626" y="195.636" width="31.1851" height="29.4027" transform="rotate(36.9681 220.626 195.636)" fill="url(#paint21_linear_266_347)"/>
<defs>
<filter id="filter0_n_266_347" x="89.9514" y="132.064" width="52.3674" height="171.493" filterUnits="userSpaceOnUse" color-interpolation-filters="sRGB">
<feFlood flood-opacity="0" result="BackgroundImageFix"/>
<feBlend mode="normal" in="SourceGraphic" in2="BackgroundImageFix" result="shape"/>
<feTurbulence type="fractalNoise" baseFrequency="2 2" stitchTiles="stitch" numOctaves="3" result="noise" seed="4084" />
<feColorMatrix in="noise" type="luminanceToAlpha" result="alphaNoise" />
<feComponentTransfer in="alphaNoise" result="coloredNoise1">
<feFuncA type="discrete" tableValues="1 1 1 1 1 1 1 1 1 1 1 1 1 1 1 1 1 1 1 1 1 1 1 1 1 1 1 1 1 1 1 1 1 1 1 1 1 1 1 1 1 1 1 1 1 1 1 1 1 1 1 0 0 0 0 0 0 0 0 0 0 0 0 0 0 0 0 0 0 0 0 0 0 0 0 0 0 0 0 0 0 0 0 0 0 0 0 0 0 0 0 0 0 0 0 0 0 0 0 0 "/>
</feComponentTransfer>
<feComposite operator="in" in2="shape" in="coloredNoise1" result="noise1Clipped" />
<feFlood flood-color="rgba(0, 0, 0, 0.25)" result="color1Flood" />
<feComposite operator="in" in2="noise1Clipped" in="color1Flood" result="color1" />
<feMerge result="effect1_noise_266_347">
<feMergeNode in="shape" />
<feMergeNode in="color1" />
</feMerge>
</filter>
<filter id="filter1_n_266_347" x="156.297" y="228.754" width="68.012" height="85.796" filterUnits="userSpaceOnUse" color-interpolation-filters="sRGB">
<feFlood flood-opacity="0" result="BackgroundImageFix"/>
<feBlend mode="normal" in="SourceGraphic" in2="BackgroundImageFix" result="shape"/>
<feTurbulence type="fractalNoise" baseFrequency="2 2" stitchTiles="stitch" numOctaves="3" result="noise" seed="6744" />
<feColorMatrix in="noise" type="luminanceToAlpha" result="alphaNoise" />
<feComponentTransfer in="alphaNoise" result="coloredNoise1">
<feFuncA type="discrete" tableValues="1 1 1 1 1 1 1 1 1 1 1 1 1 1 1 1 1 1 1 1 1 1 1 1 1 1 1 1 1 1 1 1 1 1 1 1 1 1 1 1 1 1 1 1 1 1 1 1 1 1 1 0 0 0 0 0 0 0 0 0 0 0 0 0 0 0 0 0 0 0 0 0 0 0 0 0 0 0 0 0 0 0 0 0 0 0 0 0 0 0 0 0 0 0 0 0 0 0 0 0 "/>
</feComponentTransfer>
<feComposite operator="in" in2="shape" in="coloredNoise1" result="noise1Clipped" />
<feFlood flood-color="rgba(0, 0, 0, 0.25)" result="color1Flood" />
<feComposite operator="in" in2="noise1Clipped" in="color1Flood" result="color1" />
<feMerge result="effect1_noise_266_347">
<feMergeNode in="shape" />
<feMergeNode in="color1" />
</feMerge>
</filter>
<linearGradient id="paint0_linear_266_347" x1="137.467" y1="132.025" x2="109.871" y2="305.653" gradientUnits="userSpaceOnUse">
<stop stop-color="#478C50"/>
<stop offset="1" stop-color="#26651F"/>
</linearGradient>
<linearGradient id="paint1_linear_266_347" x1="87.7211" y1="51.4762" x2="137.647" y2="59.4114" gradientUnits="userSpaceOnUse">
<stop stop-color="#E17C4E"/>
<stop offset="1" stop-color="#DE4E0C"/>
</linearGradient>
<linearGradient id="paint2_linear_266_347" x1="168.506" y1="158.797" x2="118.108" y2="154.667" gradientUnits="userSpaceOnUse">
<stop stop-color="#E17C4E"/>
<stop offset="1" stop-color="#DE4E0C"/>
</linearGradient>
<linearGradient id="paint3_linear_266_347" x1="145.343" y1="40.744" x2="165.763" y2="89.0083" gradientUnits="userSpaceOnUse">
<stop stop-color="#E17C4E"/>
<stop offset="1" stop-color="#DE4E0C"/>
</linearGradient>
<linearGradient id="paint4_linear_266_347" x1="186.543" y1="72.2264" x2="171.103" y2="122.994" gradientUnits="userSpaceOnUse">
<stop stop-color="#E17C4E"/>
<stop offset="1" stop-color="#DE4E0C"/>
</linearGradient>
<linearGradient id="paint5_linear_266_347" x1="184.66" y1="117.199" x2="152.587" y2="147.635" gradientUnits="userSpaceOnUse">
<stop stop-color="#E17C4E"/>
<stop offset="1" stop-color="#DE4E0C"/>
</linearGradient>
<linearGradient id="paint6_linear_266_347" x1="111.021" y1="168.983" x2="84.7297" y2="124.006" gradientUnits="userSpaceOnUse">
<stop stop-color="#E17C4E"/>
<stop offset="1" stop-color="#DE4E0C"/>
</linearGradient>
<linearGradient id="paint7_linear_266_347" x1="69.2961" y1="141.228" x2="85.7166" y2="90.7838" gradientUnits="userSpaceOnUse">
<stop stop-color="#E17C4E"/>
<stop offset="1" stop-color="#DE4E0C"/>
</linearGradient>
<linearGradient id="paint8_linear_266_347" x1="63.5587" y1="93.8194" x2="108.466" y2="68.4923" gradientUnits="userSpaceOnUse">
<stop stop-color="#E17C4E"/>
<stop offset="1" stop-color="#DE4E0C"/>
</linearGradient>
<linearGradient id="paint9_linear_266_347" x1="28.1772" y1="0" x2="57.8811" y2="51.488" gradientUnits="userSpaceOnUse">
<stop stop-color="#FFBF34"/>
<stop offset="0.9838" stop-color="#D97D13"/>
</linearGradient>
<linearGradient id="paint10_linear_266_347" x1="127.925" y1="74.9705" x2="158.052" y2="126.439" gradientUnits="userSpaceOnUse">
<stop stop-color="#FFBF34"/>
<stop offset="0.9838" stop-color="#D97D13"/>
</linearGradient>
<linearGradient id="paint11_linear_266_347" x1="224.198" y1="233.539" x2="165.249" y2="311.858" gradientUnits="userSpaceOnUse">
<stop stop-color="#478C50"/>
<stop offset="1" stop-color="#26651F"/>
</linearGradient>
<linearGradient id="paint12_linear_266_347" x1="220.734" y1="180.866" x2="243.254" y2="197.817" gradientUnits="userSpaceOnUse">
<stop stop-color="#E3664A"/>
<stop offset="1" stop-color="#B93153"/>
</linearGradient>
<linearGradient id="paint13_linear_266_347" x1="232.494" y1="254.835" x2="208.747" y2="239.635" gradientUnits="userSpaceOnUse">
<stop stop-color="#E3664A"/>
<stop offset="1" stop-color="#B93153"/>
</linearGradient>
<linearGradient id="paint14_linear_266_347" x1="251.922" y1="190.632" x2="249.373" y2="219.741" gradientUnits="userSpaceOnUse">
<stop stop-color="#E3664A"/>
<stop offset="1" stop-color="#B93153"/>
</linearGradient>
<linearGradient id="paint15_linear_266_347" x1="263.993" y1="216.902" x2="243.126" y2="237.877" gradientUnits="userSpaceOnUse">
<stop stop-color="#E3664A"/>
<stop offset="1" stop-color="#B93153"/>
</linearGradient>
<linearGradient id="paint16_linear_266_347" x1="251.318" y1="238.563" x2="227.568" y2="245.178" gradientUnits="userSpaceOnUse">
<stop stop-color="#E3664A"/>
<stop offset="1" stop-color="#B93153"/>
</linearGradient>
<linearGradient id="paint17_linear_266_347" x1="201.516" y1="244.836" x2="200.314" y2="215.812" gradientUnits="userSpaceOnUse">
<stop stop-color="#E3664A"/>
<stop offset="1" stop-color="#B93153"/>
</linearGradient>
<linearGradient id="paint18_linear_266_347" x1="188.213" y1="220.264" x2="209.479" y2="199.705" gradientUnits="userSpaceOnUse">
<stop stop-color="#E3664A"/>
<stop offset="1" stop-color="#B93153"/>
</linearGradient>
<linearGradient id="paint19_linear_266_347" x1="197.771" y1="195.412" x2="226.508" y2="194.667" gradientUnits="userSpaceOnUse">
<stop stop-color="#E3664A"/>
<stop offset="1" stop-color="#B93153"/>
</linearGradient>
<linearGradient id="paint20_linear_266_347" x1="15.7108" y1="0" x2="32.2728" y2="28.7082" gradientUnits="userSpaceOnUse">
<stop stop-color="#FFBF34"/>
<stop offset="0.9838" stop-color="#D97D13"/>
</linearGradient>
<linearGradient id="paint21_linear_266_347" x1="236.219" y1="195.636" x2="253.016" y2="224.334" gradientUnits="userSpaceOnUse">
<stop stop-color="#FFBF34"/>
<stop offset="0.9838" stop-color="#D97D13"/>
</linearGradient>
</defs>
</svg>
