<svg width="236" height="357" viewBox="0 0 236 357" fill="none" xmlns="http://www.w3.org/2000/svg">
<path d="M151.131 173.433L127.256 219.433H192.911L222.256 173.433H192.911H151.131Z" fill="url(#paint0_linear_229_34)"/>
<path d="M221.256 173.933L171.256 189.933L130.756 217.933" stroke="#426E47"/>
<path d="M122.256 250.433L112.256 165.433L122.256 160.433L133.256 212.433L142.256 272.433V356.933H112.256L122.256 327.433V289.433V250.433Z" fill="url(#paint1_linear_229_34)"/>
<path d="M183.256 185.933L185.256 176.433M183.256 185.933L193.256 191.933M183.256 185.933L171.756 189.933M171.756 189.933V178.933M171.756 189.933L183.256 204.433M171.756 189.933L161.256 196.933M161.256 196.933V181.933M161.256 196.933L169.756 208.433M161.256 196.933L152.256 204.433M152.256 191.933V204.433L156.256 209.933" stroke="#426E47"/>
<path d="M50.0868 79.4573C65.4935 70.5024 101.471 83.9931 117.534 91.8578L130.385 104.838C131.934 105.637 133.32 107.24 134.261 108.751L130.385 104.838C127.591 103.395 124.265 104.567 122.057 113.611C118.626 127.668 86.6109 117.203 71.0324 110.214L24.0314 87.9094C26.297 88.8232 34.68 88.4122 50.0868 79.4573Z" fill="url(#paint2_linear_229_34)"/>
<path d="M157.385 53.138C159.745 67.7736 138.06 99.418 126.922 113.411L112.724 124.114C111.617 125.46 109.926 126.599 108.443 127.341L112.724 124.114C114.72 121.685 114.813 118.581 108.339 115.913C98.2773 111.765 116.357 83.493 126.654 69.8753L158.684 28.8794C157.268 30.8674 155.025 38.5024 157.385 53.138Z" fill="url(#paint3_linear_229_34)"/>
<path d="M86.3776 172.401C80.8296 158.654 94.955 122.987 102.711 106.872L114.181 93.2863C114.962 91.7281 116.359 90.2424 117.64 89.1897L114.181 93.2863C112.773 96.0974 113.372 99.1443 120.276 100.31C131.007 102.122 119.65 133.701 112.63 149.264L90.4923 196.344C91.4324 194.091 91.9257 186.148 86.3776 172.401Z" fill="url(#paint4_linear_229_34)"/>
<path d="M191.167 139.992C179.103 148.607 141.119 143.233 123.636 139.469L107.74 131.501C106.042 131.108 104.271 130.098 102.947 129.099L107.74 131.501C110.803 132.211 113.625 130.916 113.14 123.931C112.387 113.073 145.748 116.715 162.522 119.893L213.479 130.382C211.069 129.996 203.232 131.377 191.167 139.992Z" fill="url(#paint5_linear_229_34)"/>
<path d="M122.343 193.867C100.495 178.729 103.906 143.51 108.343 127.793L122.473 115.244C122.966 113.729 124.812 112.376 126.734 111.46L122.473 115.244C121.584 117.978 125.096 121.243 140.505 123.442C164.456 126.86 163.857 158.205 160.564 173.45L148.703 219.442C149.019 217.225 144.191 209.005 122.343 193.867Z" fill="white"/>
<path d="M198.152 109.133C181.934 130.191 146.931 125.011 131.458 119.789L119.636 105.045C118.147 104.476 116.889 102.565 116.071 100.599L119.636 105.045C122.321 106.071 125.759 102.728 128.731 87.4488C133.35 63.7007 164.625 65.8764 179.686 69.9328L225.022 84.094C222.823 83.6662 214.371 88.0752 198.152 109.133Z" fill="url(#paint6_linear_229_34)"/>
<g filter="url(#filter0_n_229_34)">
<path d="M109.344 37.7254C132.49 50.7913 132.331 86.1743 129.357 102.233L116.44 116.027C116.089 117.582 114.375 119.098 112.546 120.187L116.44 116.027C117.075 113.223 113.277 110.295 97.7314 109.522C73.5681 108.32 71.2833 77.0519 73.1612 61.5683L80.745 14.6811C80.6337 16.9184 86.1976 24.6595 109.344 37.7254Z" fill="white"/>
</g>
<path d="M43.185 107.115C60.6064 87.0409 95.2461 94.2572 110.388 100.375L121.329 115.784C122.782 116.439 123.925 118.421 124.628 120.431L121.329 115.784C118.708 114.603 115.08 117.74 111.221 132.819C105.222 156.257 74.1269 152.257 59.3293 147.328L14.8979 130.541C17.0681 131.097 25.7637 127.189 43.185 107.115Z" fill="url(#paint7_linear_229_34)"/>
<g filter="url(#filter1_n_229_34)">
<path d="M97.5529 99.4889L114.546 86.9252C115.804 85.9946 117.416 85.6812 118.931 86.0721L129.103 88.6952C129.712 88.8523 130.287 89.1186 130.801 89.4813L143.862 98.6997C145.439 99.8131 146.269 101.71 146.017 103.624L143.188 125.048C142.958 126.789 141.865 128.296 140.281 129.054L124.947 136.393C123.405 137.131 121.599 137.063 120.116 136.211L99.0338 124.097C97.5199 123.227 96.5442 121.655 96.4369 119.912L95.4562 103.985C95.348 102.228 96.1372 100.536 97.5529 99.4889Z" fill="url(#paint8_linear_229_34)"/>
</g>
<defs>
<filter id="filter0_n_229_34" x="72.6514" y="14.6812" width="58.0957" height="105.506" filterUnits="userSpaceOnUse" color-interpolation-filters="sRGB">
<feFlood flood-opacity="0" result="BackgroundImageFix"/>
<feBlend mode="normal" in="SourceGraphic" in2="BackgroundImageFix" result="shape"/>
<feTurbulence type="fractalNoise" baseFrequency="2.6949305534362793 2.6949305534362793" stitchTiles="stitch" numOctaves="3" result="noise" seed="695" />
<feColorMatrix in="noise" type="luminanceToAlpha" result="alphaNoise" />
<feComponentTransfer in="alphaNoise" result="coloredNoise1">
<feFuncA type="discrete" tableValues="1 1 1 1 1 1 1 1 1 1 1 1 1 1 1 1 1 1 1 1 1 1 1 1 1 1 1 1 1 1 1 1 1 1 1 1 1 1 1 1 1 1 1 1 1 1 1 1 1 1 1 0 0 0 0 0 0 0 0 0 0 0 0 0 0 0 0 0 0 0 0 0 0 0 0 0 0 0 0 0 0 0 0 0 0 0 0 0 0 0 0 0 0 0 0 0 0 0 0 0 "/>
</feComponentTransfer>
<feComposite operator="in" in2="shape" in="coloredNoise1" result="noise1Clipped" />
<feFlood flood-color="rgba(0, 0, 0, 0.1)" result="color1Flood" />
<feComposite operator="in" in2="noise1Clipped" in="color1Flood" result="color1" />
<feMerge result="effect1_noise_229_34">
<feMergeNode in="shape" />
<feMergeNode in="color1" />
</feMerge>
</filter>
<filter id="filter1_n_229_34" x="95.4463" y="85.9075" width="50.6152" height="50.9944" filterUnits="userSpaceOnUse" color-interpolation-filters="sRGB">
<feFlood flood-opacity="0" result="BackgroundImageFix"/>
<feBlend mode="normal" in="SourceGraphic" in2="BackgroundImageFix" result="shape"/>
<feTurbulence type="fractalNoise" baseFrequency="2.6949305534362793 2.6949305534362793" stitchTiles="stitch" numOctaves="3" result="noise" seed="909" />
<feColorMatrix in="noise" type="luminanceToAlpha" result="alphaNoise" />
<feComponentTransfer in="alphaNoise" result="coloredNoise1">
<feFuncA type="discrete" tableValues="1 1 1 1 1 1 1 1 1 1 1 1 1 1 1 1 1 1 1 1 1 1 1 1 1 1 1 1 1 1 1 1 1 1 1 1 1 1 1 1 1 1 1 1 1 1 1 1 1 1 1 0 0 0 0 0 0 0 0 0 0 0 0 0 0 0 0 0 0 0 0 0 0 0 0 0 0 0 0 0 0 0 0 0 0 0 0 0 0 0 0 0 0 0 0 0 0 0 0 0 "/>
</feComponentTransfer>
<feComposite operator="in" in2="shape" in="coloredNoise1" result="noise1Clipped" />
<feFlood flood-color="rgba(0, 0, 0, 0.09)" result="color1Flood" />
<feComposite operator="in" in2="noise1Clipped" in="color1Flood" result="color1" />
<feMerge result="effect1_noise_229_34">
<feMergeNode in="shape" />
<feMergeNode in="color1" />
</feMerge>
</filter>
<linearGradient id="paint0_linear_229_34" x1="174.756" y1="173.433" x2="193.25" y2="261.541" gradientUnits="userSpaceOnUse">
<stop stop-color="#478C50"/>
<stop offset="1" stop-color="#334936"/>
</linearGradient>
<linearGradient id="paint1_linear_229_34" x1="127.256" y1="160.433" x2="127.256" y2="356.933" gradientUnits="userSpaceOnUse">
<stop stop-color="#739E73"/>
<stop offset="1" stop-color="#267426"/>
</linearGradient>
<linearGradient id="paint2_linear_229_34" x1="73.052" y1="111.172" x2="105.199" y2="78.3493" gradientUnits="userSpaceOnUse">
<stop stop-color="#C1C1C1"/>
<stop offset="1" stop-color="#FFF2D5"/>
</linearGradient>
<linearGradient id="paint3_linear_229_34" x1="125.278" y1="71.6368" x2="146.577" y2="99.199" gradientUnits="userSpaceOnUse">
<stop stop-color="#F0F0F0"/>
<stop offset="1" stop-color="#FFF2D5"/>
</linearGradient>
<linearGradient id="paint4_linear_229_34" x1="113.581" y1="147.241" x2="86.6983" y2="125.09" gradientUnits="userSpaceOnUse">
<stop stop-color="#F0F0F0"/>
<stop offset="1" stop-color="#FFF2D5"/>
</linearGradient>
<linearGradient id="paint5_linear_229_34" x1="160.333" y1="119.442" x2="145.098" y2="150.767" gradientUnits="userSpaceOnUse">
<stop stop-color="#F0F0F0"/>
<stop offset="1" stop-color="#FFF2D5"/>
</linearGradient>
<linearGradient id="paint6_linear_229_34" x1="177.738" y1="69.3243" x2="124.555" y2="113.964" gradientUnits="userSpaceOnUse">
<stop stop-color="white"/>
<stop offset="1" stop-color="#FFF2D5"/>
</linearGradient>
<linearGradient id="paint7_linear_229_34" x1="83.1453" y1="90.0638" x2="87.9057" y2="177.322" gradientUnits="userSpaceOnUse">
<stop stop-color="white"/>
<stop offset="1" stop-color="#E4D8D8"/>
</linearGradient>
<linearGradient id="paint8_linear_229_34" x1="125.919" y1="87.8741" x2="113.687" y2="135.303" gradientUnits="userSpaceOnUse">
<stop stop-color="#FFBF34"/>
<stop offset="1" stop-color="#FFAA75"/>
</linearGradient>
</defs>
</svg>
