<svg width="38" height="32" viewBox="0 0 38 32" fill="none" xmlns="http://www.w3.org/2000/svg">
<path d="M12.7172 19.7819L12.0122 15.2758L12.7172 11.5367L16.0908 9.52335L19.5652 8.75635L23.4928 10.6259L25.7084 12.5913V16.714L24.7013 19.7819L20.673 21.8912H16.0908L12.7172 19.7819Z" fill="url(#paint0_linear_229_122)"/>
<path d="M23.8196 22.5601L21.3013 23.5742L23.8196 30.4298L26.7576 29.4157L23.8196 22.5601Z" fill="url(#paint1_linear_229_122)"/>
<path d="M27.1542 11.8199L28.052 14.5136L37.2049 13.426L36.3733 10.3178L27.1542 11.8199Z" fill="url(#paint2_linear_229_122)"/>
<path d="M10.5301 16.6982L10.2765 13.8701L1.11901 12.8217L1.21282 16.0379L10.5301 16.6982Z" fill="url(#paint3_linear_229_122)"/>
<path d="M10.9618 20.7847L9.67964 19.5488L4.1866 22.6604L5.53694 24.1425L10.9618 20.7847Z" fill="url(#paint4_linear_229_122)"/>
<path d="M16.2337 24.13L14.3133 24.0037L11.8483 30.4486L13.9946 30.7317L16.2337 24.13Z" fill="url(#paint5_linear_229_122)"/>
<path d="M28.0403 17.7878L27.3795 19.5953L32.8723 23.7718L33.747 21.7915L28.0403 17.7878Z" fill="url(#paint6_linear_229_122)"/>
<path d="M22.9689 7.08386L24.7934 7.69642L28.8225 2.09466L26.8197 1.27285L22.9689 7.08386Z" fill="url(#paint7_linear_229_122)"/>
<path d="M16.0409 6.97827L18.7405 6.7651L17.5356 0.695725L14.4182 0.809491L16.0409 6.97827Z" fill="url(#paint8_linear_229_122)"/>
<path d="M11.1208 10.6575L11.8866 9.0498L7.19452 4.82611L6.21675 6.57657L11.1208 10.6575Z" fill="url(#paint9_linear_229_122)"/>
<defs>
<linearGradient id="paint0_linear_229_122" x1="18.8603" y1="8.75635" x2="18.8603" y2="21.8912" gradientUnits="userSpaceOnUse">
<stop stop-color="#FFBD8E"/>
<stop offset="1" stop-color="#FFD334"/>
</linearGradient>
<linearGradient id="paint1_linear_229_122" x1="24.0295" y1="22.5601" x2="24.0295" y2="30.4298" gradientUnits="userSpaceOnUse">
<stop stop-color="#FFBF34"/>
<stop offset="1" stop-color="#ED9735"/>
</linearGradient>
<linearGradient id="paint2_linear_229_122" x1="27.1873" y1="11.6126" x2="37.238" y2="13.2187" gradientUnits="userSpaceOnUse">
<stop stop-color="#FFBF34"/>
<stop offset="1" stop-color="#EDB635"/>
</linearGradient>
<linearGradient id="paint3_linear_229_122" x1="10.4502" y1="16.8922" x2="1.03908" y2="13.0158" gradientUnits="userSpaceOnUse">
<stop stop-color="#FFBF34"/>
<stop offset="1" stop-color="#ED9735"/>
</linearGradient>
<linearGradient id="paint4_linear_229_122" x1="10.9959" y1="20.9078" x2="4.22069" y2="22.7835" gradientUnits="userSpaceOnUse">
<stop stop-color="#FFBF34"/>
<stop offset="1" stop-color="#ED9735"/>
</linearGradient>
<linearGradient id="paint5_linear_229_122" x1="16.3466" y1="24.2084" x2="11.9613" y2="30.527" gradientUnits="userSpaceOnUse">
<stop stop-color="#FFBF34"/>
<stop offset="1" stop-color="#ED9735"/>
</linearGradient>
<linearGradient id="paint6_linear_229_122" x1="28.1473" y1="17.7015" x2="32.9792" y2="23.6854" gradientUnits="userSpaceOnUse">
<stop stop-color="#FFBF34"/>
<stop offset="1" stop-color="#ED9735"/>
</linearGradient>
<linearGradient id="paint7_linear_229_122" x1="22.8798" y1="6.97923" x2="28.7333" y2="1.99004" gradientUnits="userSpaceOnUse">
<stop stop-color="#FFBF34"/>
<stop offset="1" stop-color="#ED9735"/>
</linearGradient>
<linearGradient id="paint8_linear_229_122" x1="15.832" y1="6.92857" x2="17.3267" y2="0.646022" gradientUnits="userSpaceOnUse">
<stop stop-color="#FFBF34"/>
<stop offset="1" stop-color="#ED9735"/>
</linearGradient>
<linearGradient id="paint9_linear_229_122" x1="11.0148" y1="10.7289" x2="7.08853" y2="4.89746" gradientUnits="userSpaceOnUse">
<stop stop-color="#FFBF34"/>
<stop offset="1" stop-color="#ED9735"/>
</linearGradient>
</defs>
</svg>
